<svg xmlns="http://www.w3.org/2000/svg" xmlns:v="https://svgstorm.com"
viewBox = "0 0 128 100"
width="128"
height="100">
<g fill="None" fill-opacity="0.0" stroke="#000000" stroke-opacity="0.00" stroke-width="0.3"><path d="
M 0.00 83.00 
C 7.67 70.27 8.98 56.73 16.31 43.31 C 23.63 29.88 49.92 34.96 64.00 35.00 C 78.08 35.04 104.42 29.81 111.77 43.23 C 119.12 56.64 120.53 70.22 128.00 83.00
L 128.00 0.00
L 69.00 0.00
C 76.62 2.60 79.22 11.84 88.00 11.00 C 96.78 10.16 102.51 21.70 101.00 29.00
C 76.33 29.00 51.67 29.00 27.00 29.00
C 26.05 22.74 30.13 10.01 39.02 11.02 C 47.92 12.04 50.90 2.80 59.00 1.00
C 59.06 0.99 59.00 0.00 59.00 0.00
L 0.00 0.00
L 0.00 83.00 Z"/>
</g>
<g fill="None" fill-opacity="0.0" stroke="#AA8AD0" stroke-opacity="0.59" stroke-width="0.3"><path d="
M 59.00 1.00 
C 59.99 0.83 61.74 1.52 62.00 0.00
L 59.00 0.00
C 59.00 0.00 59.06 0.99 59.00 1.00 Z"/>
</g>
<g fill="None" fill-opacity="0.0" stroke="#AB8AD0" stroke-opacity="0.96" stroke-width="0.3"><path d="
M 59.00 1.00 
C 50.90 2.80 47.92 12.04 39.02 11.02 C 30.13 10.01 26.05 22.74 27.00 29.00
C 51.67 29.00 76.33 29.00 101.00 29.00
C 102.51 21.70 96.78 10.16 88.00 11.00 C 79.22 11.84 76.62 2.60 69.00 0.00
L 62.00 0.00
C 61.74 1.52 59.99 0.83 59.00 1.00 Z"/>
</g>
<g fill="None" fill-opacity="0.0" stroke="#AB8AD0" stroke-opacity="0.97" stroke-width="0.3"><path d="
M 0.00 83.00 
L 0.00 92.00
C 1.54 95.20 3.88 98.79 8.00 99.00
C 8.24 98.74 10.61 99.00 11.00 99.00
C 46.84 99.00 83.99 98.17 119.00 100.00
L 120.00 100.00
C 123.11 98.82 126.00 95.66 128.00 93.00
L 128.00 83.00
C 120.53 70.22 119.12 56.64 111.77 43.23 C 104.42 29.81 78.08 35.04 64.00 35.00 C 49.92 34.96 23.63 29.88 16.31 43.31 C 8.98 56.73 7.67 70.27 0.00 83.00
M 60.00 51.00 
C 63.12 52.87 59.85 59.01 56.33 56.67 C 52.81 54.33 56.63 48.98 60.00 51.00
M 72.00 51.00 
C 75.12 52.87 71.85 59.01 68.33 56.67 C 64.81 54.33 68.63 48.98 72.00 51.00
M 50.00 59.00 
C 53.12 60.87 49.85 67.01 46.33 64.67 C 42.81 62.33 46.63 56.98 50.00 59.00
M 82.00 59.00 
C 85.12 60.87 81.85 67.01 78.33 64.67 C 74.81 62.33 78.63 56.98 82.00 59.00
M 68.00 63.00 
C 83.24 67.13 76.47 91.55 60.33 86.67 C 44.19 81.79 52.50 58.80 68.00 63.00 Z"/>
</g>
<g fill="None" fill-opacity="0.0" stroke="#000000" stroke-opacity="0.00" stroke-width="0.3"><path d="
M 60.00 51.00 
C 56.63 48.98 52.81 54.33 56.33 56.67 C 59.85 59.01 63.12 52.87 60.00 51.00 Z"/>
</g>
<g fill="None" fill-opacity="0.0" stroke="#000000" stroke-opacity="0.00" stroke-width="0.3"><path d="
M 72.00 51.00 
C 68.63 48.98 64.81 54.33 68.33 56.67 C 71.85 59.01 75.12 52.87 72.00 51.00 Z"/>
</g>
<g fill="None" fill-opacity="0.0" stroke="#000000" stroke-opacity="0.00" stroke-width="0.3"><path d="
M 50.00 59.00 
C 46.63 56.98 42.81 62.33 46.33 64.67 C 49.85 67.01 53.12 60.87 50.00 59.00 Z"/>
</g>
<g fill="None" fill-opacity="0.0" stroke="#000000" stroke-opacity="0.00" stroke-width="0.3"><path d="
M 82.00 59.00 
C 78.63 56.98 74.81 62.33 78.33 64.67 C 81.85 67.01 85.12 60.87 82.00 59.00 Z"/>
</g>
<g fill="None" fill-opacity="0.0" stroke="#000000" stroke-opacity="0.00" stroke-width="0.3"><path d="
M 68.00 63.00 
C 52.50 58.80 44.19 81.79 60.33 86.67 C 76.47 91.55 83.24 67.13 68.00 63.00
M 66.00 69.00 
C 73.87 70.72 71.18 82.92 62.33 80.67 C 53.47 78.42 58.11 67.27 66.00 69.00 Z"/>
</g>
<g fill="None" fill-opacity="0.0" stroke="#AA8AD0" stroke-opacity="0.82" stroke-width="0.3"><path d="
M 66.00 69.00 
C 58.11 67.27 53.47 78.42 62.33 80.67 C 71.18 82.92 73.87 70.72 66.00 69.00 Z"/>
</g>
<g fill="None" fill-opacity="0.0" stroke="#000000" stroke-opacity="0.00" stroke-width="0.3"><path d="
M 0.00 100.00 
L 8.00 100.00
C 8.00 99.50 8.00 99.00 8.00 99.00
C 3.88 98.79 1.54 95.20 0.00 92.00
L 0.00 100.00 Z"/>
</g>
<g fill="None" fill-opacity="0.0" stroke="#000000" stroke-opacity="0.00" stroke-width="0.3"><path d="
M 120.00 100.00 
L 128.00 100.00
L 128.00 93.00
C 126.00 95.66 123.11 98.82 120.00 100.00 Z"/>
</g>
<g fill="None" fill-opacity="0.0" stroke="#AB8AD0" stroke-opacity="0.40" stroke-width="0.3"><path d="
M 8.00 100.00 
L 11.00 100.00
C 11.00 99.50 11.00 99.00 11.00 99.00
C 10.61 99.00 8.24 98.74 8.00 99.00
C 8.00 99.00 8.00 99.50 8.00 100.00 Z"/>
</g>
<g fill="None" fill-opacity="0.0" stroke="#AB89D1" stroke-opacity="0.75" stroke-width="0.3"><path d="
M 11.00 100.00 
L 119.00 100.00
C 83.99 98.17 46.84 99.00 11.00 99.00
C 11.00 99.00 11.00 99.50 11.00 100.00 Z"/>
</g>
<g fill="#000000" fill-opacity="0.00" stroke="None">
<path d="
M 0.00 83.00 
C 7.67 70.27 8.98 56.73 16.31 43.31 C 23.63 29.88 49.92 34.96 64.00 35.00 C 78.08 35.04 104.42 29.81 111.77 43.23 C 119.12 56.64 120.53 70.22 128.00 83.00
L 128.00 0.00
L 69.00 0.00
C 76.62 2.60 79.22 11.84 88.00 11.00 C 96.78 10.16 102.51 21.70 101.00 29.00
C 76.33 29.00 51.67 29.00 27.00 29.00
C 26.05 22.74 30.13 10.01 39.02 11.02 C 47.92 12.04 50.90 2.80 59.00 1.00
C 59.06 0.99 59.00 0.00 59.00 0.00
L 0.00 0.00
L 0.00 83.00 Z"/>
</g>
<g fill="#AA8AD0" fill-opacity="0.59" stroke="None">
<path d="
M 59.00 1.00 
C 59.99 0.83 61.74 1.52 62.00 0.00
L 59.00 0.00
C 59.00 0.00 59.06 0.99 59.00 1.00 Z"/>
</g>
<g fill="#AB8AD0" fill-opacity="0.96" stroke="None">
<path d="
M 59.00 1.00 
C 50.90 2.80 47.92 12.04 39.02 11.02 C 30.13 10.01 26.05 22.74 27.00 29.00
C 51.67 29.00 76.33 29.00 101.00 29.00
C 102.51 21.70 96.78 10.16 88.00 11.00 C 79.22 11.84 76.62 2.60 69.00 0.00
L 62.00 0.00
C 61.74 1.52 59.99 0.83 59.00 1.00 Z"/>
</g>
<g fill="#AB8AD0" fill-opacity="0.97" stroke="None">
<path d="
M 0.00 83.00 
L 0.00 92.00
C 1.54 95.20 3.88 98.79 8.00 99.00
C 8.24 98.74 10.61 99.00 11.00 99.00
C 46.84 99.00 83.99 98.17 119.00 100.00
L 120.00 100.00
C 123.11 98.82 126.00 95.66 128.00 93.00
L 128.00 83.00
C 120.53 70.22 119.12 56.64 111.77 43.23 C 104.42 29.81 78.08 35.04 64.00 35.00 C 49.92 34.96 23.63 29.88 16.31 43.31 C 8.98 56.73 7.67 70.27 0.00 83.00
M 60.00 51.00 
C 63.12 52.87 59.85 59.01 56.33 56.67 C 52.81 54.33 56.63 48.98 60.00 51.00
M 72.00 51.00 
C 75.12 52.87 71.85 59.01 68.33 56.67 C 64.81 54.33 68.63 48.98 72.00 51.00
M 50.00 59.00 
C 53.12 60.87 49.85 67.01 46.33 64.67 C 42.81 62.33 46.63 56.98 50.00 59.00
M 82.00 59.00 
C 85.12 60.87 81.85 67.01 78.33 64.67 C 74.81 62.33 78.63 56.98 82.00 59.00
M 68.00 63.00 
C 83.24 67.13 76.47 91.55 60.33 86.67 C 44.19 81.79 52.50 58.80 68.00 63.00 Z"/>
</g>
<g fill="#000000" fill-opacity="0.00" stroke="None">
<path d="
M 60.00 51.00 
C 56.63 48.98 52.81 54.33 56.33 56.67 C 59.85 59.01 63.12 52.87 60.00 51.00 Z"/>
</g>
<g fill="#000000" fill-opacity="0.00" stroke="None">
<path d="
M 72.00 51.00 
C 68.63 48.98 64.81 54.33 68.33 56.67 C 71.85 59.01 75.12 52.87 72.00 51.00 Z"/>
</g>
<g fill="#000000" fill-opacity="0.00" stroke="None">
<path d="
M 50.00 59.00 
C 46.63 56.98 42.81 62.33 46.33 64.67 C 49.85 67.01 53.12 60.87 50.00 59.00 Z"/>
</g>
<g fill="#000000" fill-opacity="0.00" stroke="None">
<path d="
M 82.00 59.00 
C 78.63 56.98 74.81 62.33 78.33 64.67 C 81.85 67.01 85.12 60.87 82.00 59.00 Z"/>
</g>
<g fill="#000000" fill-opacity="0.00" stroke="None">
<path d="
M 68.00 63.00 
C 52.50 58.80 44.19 81.79 60.33 86.67 C 76.47 91.55 83.24 67.13 68.00 63.00
M 66.00 69.00 
C 73.87 70.72 71.18 82.92 62.33 80.67 C 53.47 78.42 58.11 67.27 66.00 69.00 Z"/>
</g>
<g fill="#AA8AD0" fill-opacity="0.82" stroke="None">
<path d="
M 66.00 69.00 
C 58.11 67.27 53.47 78.42 62.33 80.67 C 71.18 82.92 73.87 70.72 66.00 69.00 Z"/>
</g>
<g fill="#000000" fill-opacity="0.00" stroke="None">
<path d="
M 0.00 100.00 
L 8.00 100.00
C 8.00 99.50 8.00 99.00 8.00 99.00
C 3.88 98.79 1.54 95.20 0.00 92.00
L 0.00 100.00 Z"/>
</g>
<g fill="#000000" fill-opacity="0.00" stroke="None">
<path d="
M 120.00 100.00 
L 128.00 100.00
L 128.00 93.00
C 126.00 95.66 123.11 98.82 120.00 100.00 Z"/>
</g>
<g fill="#AB8AD0" fill-opacity="0.40" stroke="None">
<path d="
M 8.00 100.00 
L 11.00 100.00
C 11.00 99.50 11.00 99.00 11.00 99.00
C 10.61 99.00 8.24 98.74 8.00 99.00
C 8.00 99.00 8.00 99.50 8.00 100.00 Z"/>
</g>
<g fill="#AB89D1" fill-opacity="0.75" stroke="None">
<path d="
M 11.00 100.00 
L 119.00 100.00
C 83.99 98.17 46.84 99.00 11.00 99.00
C 11.00 99.00 11.00 99.50 11.00 100.00 Z"/>
</g>
</svg>